<?xml version="1.0" standalone="no"?>
<!DOCTYPE svg PUBLIC "-//W3C//DTD SVG 20010904//EN"
 "http://www.w3.org/TR/2001/REC-SVG-20010904/DTD/svg10.dtd">
<svg version="1.0" xmlns="http://www.w3.org/2000/svg"
 width="348.000000pt" height="295.000000pt" viewBox="0 0 348.000000 295.000000"
 preserveAspectRatio="xMidYMid meet">

<g transform="translate(0.000000,295.000000) scale(0.100000,-0.100000)"
fill="#000000" stroke="none">
<path d="M2394 2856 c-88 -40 -224 -192 -224 -249 0 -7 -11 -24 -25 -37 -13
-12 -22 -27 -19 -31 3 -5 -22 -40 -55 -79 -33 -38 -68 -84 -77 -102 -8 -18
-34 -50 -57 -71 -32 -29 -35 -34 -12 -20 27 17 29 17 22 0 -12 -32 -29 -147
-23 -162 3 -8 1 -17 -3 -19 -8 -5 -26 49 -34 104 -3 18 -5 15 -5 -10 -1 -19 8
-60 19 -90 35 -97 35 -94 8 -87 -25 6 -22 2 24 -28 15 -10 47 -165 47 -226 0
-31 -49 -79 -81 -79 -26 0 -69 -23 -92 -48 -18 -19 -18 -21 2 -60 21 -41 74
-92 94 -92 7 1 0 8 -15 16 -40 21 -35 26 23 18 l52 -7 52 57 c50 54 54 56 104
56 50 0 131 -30 131 -49 0 -11 -29 -35 -65 -54 -16 -9 -25 -16 -19 -17 7 0 36
16 64 35 38 25 56 32 65 25 8 -7 26 -5 59 7 53 20 110 63 83 63 -10 0 -17 -6
-17 -12 0 -9 -4 -8 -10 2 -6 9 -10 11 -10 3 0 -7 -6 -11 -12 -8 -7 2 -39 6
-71 9 -31 3 -70 12 -86 20 -16 9 -32 12 -36 8 -5 -4 -5 -1 -1 6 10 17 -30 10
-53 -10 -28 -24 -85 -29 -98 -9 -6 9 -29 23 -52 30 l-42 12 26 30 c14 17 25
34 25 38 0 5 -11 66 -24 137 -34 179 -39 235 -31 301 l7 58 14 -40 c7 -22 14
-51 14 -65 2 -42 24 -93 42 -96 10 -1 17 1 17 4 -1 4 -1 14 0 22 1 13 2 13 11
0 5 -8 10 -10 10 -4 0 13 38 12 59 0 10 -6 12 -5 7 3 -5 8 0 10 18 7 15 -3 24
-1 21 5 -4 5 -11 6 -17 3 -7 -4 -8 -2 -4 4 5 8 13 9 25 2 10 -5 21 -7 24 -4 5
6 32 12 55 13 7 1 11 5 7 10 -3 5 0 13 6 17 8 4 9 3 5 -4 -4 -7 -2 -12 3 -12
6 0 11 5 11 12 0 6 2 9 5 6 3 -3 -13 -43 -35 -90 -22 -47 -40 -94 -40 -104 0
-11 13 10 28 46 79 183 208 300 319 287 52 -6 79 -27 104 -82 38 -82 18 -201
-45 -276 l-24 -28 1 59 c2 52 4 60 24 65 13 3 23 10 23 15 0 5 -6 7 -14 4 -8
-3 -31 12 -54 35 -66 67 -130 53 -202 -44 -68 -93 -85 -165 -52 -220 l18 -30
-38 -17 c-37 -17 -102 -15 -114 3 -4 8 9 102 22 147 2 9 -2 4 -10 -13 -13 -26
-18 -59 -31 -183 -1 -12 2 -25 8 -29 6 -3 7 -1 3 5 -3 6 -1 14 5 18 8 4 9 3 5
-4 -5 -8 0 -12 13 -12 12 0 21 4 21 10 0 5 3 9 8 8 4 -1 37 13 74 31 38 18 99
38 136 43 71 11 142 5 142 -13 0 -6 -6 -7 -12 -3 -10 6 -10 4 0 -8 10 -13 10
-18 -1 -30 -12 -11 -12 -16 0 -26 7 -7 13 -9 13 -5 0 5 10 13 23 18 12 6 21
16 20 22 -1 6 5 10 15 9 12 -1 17 6 16 26 -1 15 3 25 8 22 4 -3 6 -10 3 -15
-4 -5 -1 -9 4 -9 6 0 11 7 11 16 0 8 5 12 10 9 9 -5 14 7 12 26 -1 4 6 6 16 5
11 -1 16 6 16 17 -2 13 1 15 11 7 15 -13 26 8 19 37 -5 17 26 65 40 64 3 -1
25 8 49 19 23 11 71 28 107 39 63 19 64 19 42 1 -13 -10 -48 -28 -78 -39 -60
-23 -134 -59 -134 -66 0 -2 16 3 36 11 20 8 39 13 42 10 3 -3 10 0 16 8 6 7
33 21 59 30 27 10 68 34 93 52 25 19 63 42 85 50 22 9 38 18 36 20 -2 2 -26
-5 -53 -15 -27 -11 -90 -32 -140 -48 l-92 -29 70 76 c74 79 102 100 211 156
37 19 67 36 67 39 0 3 -42 -16 -92 -42 -51 -26 -96 -49 -99 -51 -3 -1 4 27 16
63 15 43 25 105 29 182 14 214 76 308 159 243 14 -11 38 -46 53 -78 23 -48 28
-72 30 -152 4 -151 -25 -233 -108 -305 -24 -21 -34 -33 -23 -27 36 19 94 86
114 133 31 69 39 157 31 325 -8 167 -20 207 -60 212 -41 4 -148 -66 -243 -161
-49 -48 -97 -92 -107 -97 -42 -22 -110 82 -110 167 0 33 -17 28 -25 -7 -8 -36
-21 -39 -29 -6 -7 27 -58 86 -76 86 -8 0 -9 -10 -5 -31 7 -31 7 -32 -16 -15
-36 25 -50 21 -43 -11 6 -26 5 -27 -10 -12 -13 12 -18 35 -19 91 -3 104 -20
128 -90 127 -32 0 -72 -9 -103 -23z m100 -45 c4 -5 -3 -7 -14 -4 -23 6 -26 13
-6 13 8 0 17 -4 20 -9z m595 -232 c-14 -35 -22 -94 -28 -187 -6 -95 -15 -153
-29 -189 -39 -102 -144 -217 -209 -229 -47 -9 -50 0 -9 24 19 11 47 39 62 61
25 38 27 51 34 194 8 169 18 203 77 275 29 35 106 102 119 102 1 0 -7 -23 -17
-51z m-498 -247 c-7 -2 -18 1 -23 6 -8 8 -4 9 13 5 13 -4 18 -8 10 -11z m-351
-228 c0 -8 -19 -13 -24 -6 -3 5 1 9 9 9 8 0 15 -2 15 -3z m-100 -8 c0 -2 -6
-9 -14 -15 -11 -9 -16 -9 -22 0 -4 7 -3 9 4 5 6 -3 13 -2 17 4 6 10 15 14 15
6z m60 -2 c0 -8 -19 -13 -24 -6 -3 5 1 9 9 9 8 0 15 -2 15 -3z m355 -45 l20
-21 -50 7 c-34 4 -65 2 -93 -8 -39 -13 -41 -13 -30 1 44 53 113 63 153 21z
m-530 12 c3 -5 2 -12 -3 -15 -5 -3 -9 1 -9 9 0 17 3 19 12 6z m520 -51 c59
-22 53 -139 -10 -200 -40 -39 -50 -36 -34 9 15 42 6 107 -18 133 -10 11 -31
27 -48 34 l-30 13 25 10 c33 13 82 13 115 1z m-73 -68 c17 -17 19 -27 13 -59
l-8 -38 -6 30 c-4 20 -13 31 -30 35 -16 3 -27 15 -32 32 -6 23 -4 26 18 23 14
-1 34 -12 45 -23z m140 -175 c-5 -7 -8 -24 -7 -40 1 -15 0 -25 -3 -22 -3 3
-12 -1 -21 -7 -14 -11 -14 -10 0 7 9 11 15 28 14 37 -2 10 1 20 6 24 5 3 6 10
3 16 -4 7 -2 8 5 4 7 -5 9 -12 3 -19z m-630 -200 c-26 -26 -35 -30 -50 -21
-10 6 -32 15 -50 18 -53 12 -45 24 16 24 31 0 68 5 82 10 37 14 38 5 2 -31z"/>
<path d="M3244 2268 l-19 -23 23 19 c21 18 27 26 19 26 -2 0 -12 -10 -23 -22z"/>
<path d="M2855 1885 c-25 -11 -27 -15 -13 -20 10 -4 15 -11 12 -16 -3 -5 0 -9
6 -9 7 0 9 8 5 20 -5 16 -2 20 14 20 12 0 21 5 21 10 0 13 -7 12 -45 -5z"/>
<path d="M2781 1804 c-75 -109 -242 -221 -401 -268 -47 -14 -77 -25 -67 -25
22 -1 21 -25 -2 -77 -52 -114 -178 -128 -551 -62 -233 42 -375 43 -503 4 -151
-45 -271 -118 -366 -221 -68 -75 -92 -119 -168 -299 -43 -104 -71 -158 -90
-173 -28 -22 -48 -28 -213 -58 -47 -9 -112 -29 -146 -45 -78 -38 -154 -104
-154 -135 0 -22 1 -22 118 -18 270 10 416 69 453 182 l12 35 24 -28 24 -29
-89 -88 c-48 -49 -85 -89 -80 -89 5 0 1 -14 -7 -30 -30 -59 -2 -83 142 -121
143 -39 282 -31 738 41 299 47 455 63 509 54 64 -10 106 -37 206 -128 114
-106 161 -130 236 -124 47 4 60 10 85 38 l31 33 -29 23 -28 23 27 1 c65 1 241
-24 325 -46 79 -20 100 -22 142 -13 61 13 93 37 126 93 l25 43 81 6 c102 7
164 36 196 92 34 60 38 106 15 158 -26 58 -85 88 -182 93 -62 3 -74 7 -139 51
-68 46 -71 49 -65 80 10 54 -4 98 -46 146 -59 66 -71 111 -74 257 -2 119 -5
133 -54 293 -75 243 -80 321 -24 352 23 12 24 14 7 15 -12 0 -30 -14 -44 -36z
m51 -348 c28 -92 51 -187 51 -210 1 -95 -4 -151 -12 -138 -5 8 -10 -11 -14
-52 -7 -74 -52 -199 -92 -254 -21 -29 -22 -32 -3 -12 12 14 30 37 39 50 l16
24 26 -45 c16 -27 27 -61 27 -82 0 -29 -6 -39 -32 -56 -37 -22 -65 -59 -45
-58 7 1 32 -9 57 -20 25 -12 84 -26 132 -32 49 -6 97 -15 108 -21 33 -18 24
-32 -17 -27 -21 2 -60 1 -88 -3 -45 -7 -42 -7 36 -9 71 -1 88 -4 93 -17 4 -9
5 -17 4 -18 -2 -1 -11 -8 -20 -15 -15 -11 -31 -9 -102 9 -51 14 -83 27 -79 33
3 6 1 7 -6 3 -8 -5 -295 84 -318 99 -2 1 4 23 13 49 20 59 9 109 -37 160 l-30
34 22 64 c30 89 23 181 -24 316 -30 87 -77 269 -77 301 0 5 37 27 83 49 45 22
101 57 124 76 22 20 44 36 47 36 3 0 6 -13 6 -29 0 -31 39 -166 46 -159 2 2 0
18 -5 35 -8 28 -16 163 -11 188 1 6 8 -15 16 -45 8 -30 38 -131 66 -224z
m-1487 -136 c7 -11 -21 -104 -38 -127 -5 -7 -25 -14 -45 -16 l-37 -4 37 -1
c22 -1 43 4 53 14 13 14 29 15 92 10 44 -4 81 -13 90 -22 8 -7 20 -14 26 -14
6 0 2 7 -10 15 -22 15 -22 20 2 90 4 14 1 12 -9 -5 -8 -14 -15 -33 -16 -42 0
-14 -10 -16 -77 -11 -43 3 -79 7 -81 8 -2 1 5 21 14 45 l17 42 81 -3 c45 -2
87 0 94 5 24 15 190 -11 214 -33 8 -7 -18 -92 -36 -119 -6 -10 -22 -12 -60 -7
-28 4 -48 4 -45 1 4 -4 31 -9 60 -12 85 -7 242 -43 250 -56 16 -26 -10 -35
-83 -31 -42 3 -84 0 -98 -6 -20 -9 -11 -11 48 -7 73 5 120 -5 134 -27 4 -7 8
-29 8 -49 0 -47 -31 -83 -63 -73 -12 4 -51 9 -87 12 -36 3 -71 10 -77 15 -16
13 -17 62 -2 90 6 11 8 22 6 25 -3 3 -12 -8 -21 -24 -8 -15 -15 -23 -16 -18 0
6 -11 12 -26 13 -17 1 -23 -2 -19 -11 4 -6 -4 2 -17 18 -43 55 -91 106 -122
127 -20 14 -9 -2 31 -45 63 -68 123 -175 123 -219 0 -40 -40 -107 -130 -215
-80 -97 -98 -111 -133 -97 -11 4 -9 11 12 32 54 56 155 192 132 178 -5 -3 -7
3 -4 15 4 15 8 17 14 7 6 -9 8 -6 6 9 -1 18 -4 20 -16 10 -8 -7 -17 -12 -20
-11 -14 2 -41 -9 -41 -17 0 -5 -6 -8 -12 -7 -7 2 -12 -3 -10 -11 3 -12 0 -12
-12 -1 -12 9 -16 9 -16 1 0 -7 -4 -9 -10 -6 -5 3 -10 1 -10 -6 0 -6 -11 0 -25
15 -16 17 -33 26 -52 25 -27 -2 -27 -2 -3 -6 36 -7 50 -22 50 -52 0 -49 -18
-61 -99 -63 -72 -3 -75 -2 -90 25 -15 25 -15 30 1 57 9 17 13 30 8 30 -14 0
-29 -33 -32 -69 -2 -26 -4 -29 -18 -17 -16 14 -40 11 -40 -6 0 -6 8 -5 18 3
16 13 16 12 3 -4 -14 -18 -16 -18 -28 -1 -12 17 -13 17 -13 -1 0 -18 -1 -18
-13 -1 -11 15 -12 12 -11 -19 1 -19 -2 -32 -7 -29 -5 3 -12 -2 -15 -10 -3 -9
-11 -16 -16 -16 -7 0 -6 5 1 13 6 8 7 17 3 21 -4 4 -1 6 7 4 9 -2 16 6 18 17
3 18 2 18 -5 2 -4 -10 -11 -18 -15 -18 -4 1 -7 -2 -8 -6 0 -5 -5 -14 -11 -20
-8 -9 -4 -15 13 -22 l24 -9 -25 -10 c-93 -37 -110 -45 -110 -52 0 -4 26 2 58
13 107 36 201 32 512 -23 37 -7 133 -11 220 -9 85 2 207 3 271 4 l116 0 54
-37 c30 -20 96 -76 148 -125 l95 -89 -34 -20 -34 -20 -46 46 c-149 148 -255
187 -450 165 -70 -7 -128 -14 -187 -20 -27 -3 -64 -7 -83 -10 -235 -31 -394
-42 -465 -32 -16 2 -55 7 -86 11 -31 4 -67 9 -80 12 -13 2 -44 5 -69 5 -25 1
-53 6 -63 11 -12 6 -23 6 -32 -2 -22 -19 -29 8 -9 38 l18 27 -38 -30 c-71 -58
-86 -75 -93 -105 -6 -32 -20 -35 -36 -8 -17 27 8 67 104 168 95 100 128 153
129 208 0 29 2 32 19 22 15 -7 22 -7 28 2 10 17 11 78 1 84 -18 11 -6 19 30
21 63 2 176 18 190 26 6 5 12 13 12 18 0 6 -7 3 -16 -5 -9 -10 -33 -16 -60
-16 -25 0 -66 -5 -91 -12 -41 -10 -47 -9 -60 8 -8 11 -13 37 -11 64 3 43 5 46
43 58 22 8 68 16 102 19 l63 6 15 -34 c8 -19 14 -27 15 -19 0 9 -7 26 -16 38
-18 27 -68 29 -159 7 -41 -10 -63 -11 -70 -4 -7 7 -6 9 4 7 7 -2 15 6 16 17 6
37 -63 -55 -86 -114 -36 -96 -41 -181 -15 -251 3 -8 2 -22 -3 -30 -8 -12 -13
-12 -30 4 -30 27 -44 79 -36 135 7 49 102 260 133 294 23 26 136 82 207 102
32 10 86 18 119 18 45 0 50 1 19 4 -35 3 -43 8 -43 24 0 32 27 87 49 98 47 26
145 38 156 21z m-213 -100 c-7 -19 -27 -29 -98 -51 -48 -15 -90 -26 -92 -24
-6 6 86 65 140 90 56 26 64 23 50 -15z m713 21 l40 -9 -38 -1 c-34 -1 -38 -4
-36 -23 2 -13 -2 -33 -9 -45 -10 -18 -9 -22 6 -27 9 -2 -1 -2 -23 1 -22 3 -43
8 -46 12 -4 3 0 27 8 54 17 51 22 53 98 38z m259 -4 c17 -12 17 -16 1 -70 -9
-33 -24 -61 -35 -67 -21 -11 -122 -12 -160 -1 -22 7 -25 12 -23 55 1 26 9 58
17 71 15 23 22 25 99 25 53 0 90 -5 101 -13z m450 -101 c27 -92 17 -214 -13
-158 -7 13 -6 23 2 32 8 10 6 10 -7 0 -18 -14 -19 -13 -13 2 4 11 2 17 -6 15
-16 -3 -11 82 6 99 3 4 1 16 -5 28 -10 19 -9 19 5 8 13 -11 15 -10 10 7 -3 12
-3 21 0 21 3 0 13 -24 21 -54z m-41 -9 c-4 -7 -8 -18 -10 -26 -1 -8 -8 -18
-15 -22 -10 -7 -10 -9 0 -9 14 0 12 -21 -3 -32 -6 -5 -6 -8 2 -8 6 0 18 -14
27 -31 11 -22 12 -28 2 -20 -7 6 -15 8 -19 5 -3 -3 -3 3 0 15 3 13 1 21 -6 21
-7 0 -10 -4 -6 -9 3 -5 1 -12 -4 -16 -6 -3 -8 3 -6 15 2 11 0 22 -6 25 -8 6
-13 -8 -10 -28 1 -5 -4 -5 -10 -1 -9 5 -10 2 -5 -12 6 -15 5 -16 -5 -7 -10 10
-9 16 1 28 11 13 10 19 -6 38 -10 12 -15 19 -10 15 5 -4 16 -2 25 5 14 10 14
10 3 -5 -8 -9 -9 -19 -4 -22 11 -7 22 16 22 47 0 18 2 19 11 7 8 -12 9 -12 7
5 -3 25 10 47 23 39 5 -3 6 -11 2 -17z m-556 -53 c-3 -3 -12 -4 -19 -1 -8 3
-5 6 6 6 11 1 17 -2 13 -5z m-2 -22 c-3 -3 3 -15 12 -26 18 -21 18 -21 -4 -2
-24 20 -32 10 -10 -14 6 -7 0 -5 -15 6 -27 19 -23 41 7 41 8 0 13 -3 10 -5z
m449 -33 c24 -60 79 -142 130 -194 49 -49 62 -88 53 -157 -6 -48 -15 -59 -43
-52 -20 5 -20 8 -8 42 17 51 8 59 -29 25 -17 -15 -25 -20 -18 -10 12 15 12 17
-3 11 -9 -3 -16 -10 -16 -14 0 -5 -11 -7 -25 -5 -18 1 -22 -1 -16 -9 7 -8 4
-12 -9 -12 -10 0 -16 4 -13 9 3 5 -5 3 -18 -4 -33 -18 -89 -20 -96 -3 -3 8 -9
14 -15 14 -5 0 -6 -4 -3 -10 10 -16 -1 -11 -16 7 -12 14 -12 16 0 8 10 -6 12
-4 7 4 -5 7 -14 10 -22 7 -7 -3 -16 0 -20 6 -5 7 -2 8 6 3 8 -5 11 -3 8 6 -3
8 -11 13 -18 11 -10 -2 -10 1 1 14 8 10 9 15 2 11 -7 -5 -12 -1 -12 10 1 34
-8 57 -22 61 -11 3 -11 1 1 -7 8 -6 10 -11 4 -11 -25 0 -34 26 -17 50 10 14
11 20 4 15 -10 -6 -11 -2 -6 16 5 19 4 21 -5 9 -8 -12 -10 -9 -7 15 3 19 9 29
18 27 11 -3 12 -1 1 10 -10 10 -8 16 10 31 l23 18 -28 -13 c-17 -7 -26 -17
-23 -25 3 -8 2 -11 -4 -8 -5 3 -7 -3 -5 -15 2 -11 0 -22 -6 -25 -5 -4 -5 -15
2 -28 7 -16 5 -15 -11 5 -12 15 -20 29 -18 31 2 2 -4 12 -12 23 -14 17 -14 18
2 6 14 -11 19 -10 32 9 8 12 13 26 10 31 -3 4 3 5 12 1 12 -4 15 -3 10 5 -5 8
-1 10 10 5 12 -5 15 -3 9 6 -6 10 -3 11 13 2 14 -7 23 -8 27 -1 4 6 11 7 17 4
7 -4 8 -2 4 5 -6 9 -11 9 -21 1 -10 -8 -15 -8 -21 1 -4 7 -3 9 4 5 6 -3 13 -2
17 4 4 7 14 6 28 -2 21 -11 21 -10 7 7 -8 10 -10 16 -3 12 6 -4 15 -3 18 3 5
8 11 8 20 0 9 -7 16 -6 26 7 13 17 13 17 -6 3 -19 -14 -19 -14 -6 2 7 10 16
16 20 14 4 -3 13 -1 21 5 23 14 27 12 44 -32z m578 -142 c11 -18 18 -53 18
-82 0 -44 -3 -51 -20 -51 -15 0 -20 7 -21 28 -3 50 -4 53 -26 52 -13 -1 -20 2
-18 6 3 4 -2 10 -10 13 -8 4 -23 24 -35 47 -20 39 -20 42 -4 89 l18 48 40 -59
c23 -32 49 -73 58 -91z m-842 67 c0 -8 -19 -13 -24 -6 -3 5 1 9 9 9 8 0 15 -2
15 -3z m-312 -202 c6 -9 12 -28 12 -43 0 -38 -16 -46 -92 -47 -77 -1 -98 12
-98 58 0 45 32 62 105 54 36 -4 65 -12 73 -22z m376 12 c5 -14 4 -15 -9 -4
-17 14 -19 20 -6 20 5 0 12 -7 15 -16z m-1334 -10 c0 -8 -19 -13 -24 -6 -3 5
1 9 9 9 8 0 15 -2 15 -3z m2175 -40 c18 -8 41 -24 51 -35 17 -19 17 -20 -2
-14 -18 6 -18 6 0 -5 10 -7 56 -14 103 -16 152 -7 212 -55 200 -162 -5 -50
-29 -87 -77 -119 -47 -33 -58 -28 -22 9 17 17 29 35 26 40 -3 4 1 8 8 8 7 0
-12 14 -42 31 -30 16 -69 43 -85 59 -30 29 -55 39 -55 21 0 -5 7 -14 15 -21
19 -15 19 -29 0 -54 -12 -16 -17 -17 -30 -6 -20 16 -19 31 1 23 15 -6 15 -4 0
19 -15 24 -16 27 -1 42 9 9 21 16 26 16 6 0 8 4 4 10 -3 5 -12 7 -20 4 -8 -3
-30 -1 -49 6 -30 10 -118 28 -153 32 -7 1 -13 7 -13 14 0 7 -5 16 -12 20 -7 5
-8 3 -3 -6 5 -8 4 -11 -2 -7 -12 7 -11 46 1 66 6 10 5 12 -2 7 -7 -4 -12 -4
-12 -1 0 10 63 34 88 35 13 0 39 -7 57 -16z m-995 -109 c-17 -30 -38 -55 -46
-55 -21 0 -18 6 29 69 51 70 60 62 17 -14z m-357 -11 c65 -16 128 -25 187 -25
50 -1 90 -5 90 -9 0 -14 -107 -24 -250 -25 -122 0 -258 10 -268 20 -2 2 8 20
24 40 26 35 29 36 73 30 25 -3 90 -17 144 -31z m869 0 c42 -8 158 -41 257 -74
99 -33 189 -60 200 -60 22 0 58 -41 67 -77 4 -13 3 -44 -1 -69 -7 -52 -64
-118 -109 -126 -33 -7 -33 -3 4 39 37 41 40 66 8 55 -28 -10 -105 -9 -135 2
-13 4 -23 15 -24 24 0 9 -2 27 -5 40 -2 12 1 22 6 22 6 0 10 5 10 11 0 6 -6 9
-14 6 -8 -3 -17 1 -20 9 -3 9 -10 12 -16 9 -5 -3 -10 -2 -10 3 0 12 -12 13
-235 16 -163 1 -211 5 -260 21 -33 10 -64 19 -70 21 -5 1 -34 18 -63 38 l-54
36 44 18 c77 34 120 45 197 51 88 8 117 6 223 -15z m-505 -220 c24 -13 78 -58
121 -98 43 -40 85 -76 93 -78 10 -4 11 -9 3 -17 -8 -9 -36 11 -110 77 -54 49
-114 97 -133 107 -49 25 -160 22 -359 -9 -204 -32 -240 -32 -67 0 314 58 380
61 452 18z m-594 -51 c-7 -2 -21 -2 -30 0 -10 3 -4 5 12 5 17 0 24 -2 18 -5z
m1258 -2 c5 9 9 10 9 2 0 -6 9 -9 20 -6 14 4 20 0 20 -11 0 -11 -4 -14 -12 -9
-7 4 -22 8 -32 8 -11 0 -20 6 -22 13 -2 8 0 8 3 1 4 -8 8 -7 14 2z m-1318 -8
c-7 -2 -21 -2 -30 0 -10 3 -4 5 12 5 17 0 24 -2 18 -5z m-60 -10 c-7 -2 -21
-2 -30 0 -10 3 -4 5 12 5 17 0 24 -2 18 -5z m-80 -10 c-7 -2 -21 -2 -30 0 -10
3 -4 5 12 5 17 0 24 -2 18 -5z m-75 -10 c-10 -2 -26 -2 -35 0 -10 3 -2 5 17 5
19 0 27 -2 18 -5z"/>
<path d="M2771 1490 c-1 -3 15 -49 34 -102 19 -54 39 -126 44 -160 l10 -63 -5
66 c-2 37 -13 91 -23 120 -20 58 -59 147 -60 139z"/>
<path d="M1553 1153 c9 -2 23 -2 30 0 6 3 -1 5 -18 5 -16 0 -22 -2 -12 -5z"/>
<path d="M1388 1073 c12 -2 32 -2 45 0 12 2 2 4 -23 4 -25 0 -35 -2 -22 -4z"/>
<path d="M1295 1060 c-14 -7 -8 -8 20 -3 22 3 42 7 44 9 9 8 -45 2 -64 -6z"/>
<path d="M1474 1054 c19 -19 22 -99 4 -111 -7 -4 -35 -10 -63 -14 l-50 -6 45
-2 c64 -2 90 19 90 70 0 43 -14 79 -31 79 -6 0 -3 -7 5 -16z"/>
<path d="M1241 984 c0 -11 3 -14 6 -6 3 7 2 16 -1 19 -3 4 -6 -2 -5 -13z"/>
<path d="M1250 945 c0 -5 5 -17 10 -25 5 -8 10 -10 10 -5 0 6 -5 17 -10 25 -5
8 -10 11 -10 5z"/>
<path d="M1293 903 c9 -2 23 -2 30 0 6 3 -1 5 -18 5 -16 0 -22 -2 -12 -5z"/>
<path d="M1208 783 c6 -2 18 -2 25 0 6 3 1 5 -13 5 -14 0 -19 -2 -12 -5z"/>
<path d="M1785 1221 c-3 -5 -2 -12 3 -15 5 -3 9 1 9 9 0 17 -3 19 -12 6z"/>
<path d="M1781 1184 c9 -11 8 -14 -4 -14 -9 0 -18 -4 -21 -8 -2 -4 4 -8 14 -8
10 0 23 8 28 17 9 14 7 18 -9 22 -17 4 -18 3 -8 -9z"/>
<path d="M2551 984 c0 -11 3 -14 6 -6 3 7 2 16 -1 19 -3 4 -6 -2 -5 -13z"/>
<path d="M2131 906 c-8 -10 -9 -16 -1 -21 5 -3 10 -5 11 -3 4 18 7 38 4 38 -1
0 -8 -6 -14 -14z"/>
<path d="M2328 643 c7 -3 16 -2 19 1 4 3 -2 6 -13 5 -11 0 -14 -3 -6 -6z"/>
<path d="M2545 1670 c-3 -5 -1 -10 4 -10 6 0 11 5 11 10 0 6 -2 10 -4 10 -3 0
-8 -4 -11 -10z"/>
<path d="M2128 1483 c7 -3 16 -2 19 1 4 3 -2 6 -13 5 -11 0 -14 -3 -6 -6z"/>
<path d="M2078 1473 c6 -2 18 -2 25 0 6 3 1 5 -13 5 -14 0 -19 -2 -12 -5z"/>
<path d="M2180 1470 c-8 -5 -10 -10 -5 -10 6 0 17 5 25 10 8 5 11 10 5 10 -5
0 -17 -5 -25 -10z"/>
<path d="M1920 1460 c0 -17 58 -40 102 -39 24 0 59 7 78 15 21 8 25 12 10 9
-68 -15 -117 -16 -145 -4 -30 13 -29 13 35 19 l65 7 -72 1 c-42 1 -73 -2 -73
-8z"/>
<path d="M74 415 c-15 -20 -25 -37 -23 -39 2 -2 16 14 31 35 35 49 28 51 -8 4z"/>
<path d="M500 384 c-30 -13 -48 -23 -40 -23 18 -1 100 36 100 44 0 3 -1 4 -2
4 -2 -1 -28 -12 -58 -25z"/>
<path d="M148 363 c7 -3 16 -2 19 1 4 3 -2 6 -13 5 -11 0 -14 -3 -6 -6z"/>
<path d="M188 363 c6 -2 18 -2 25 0 6 3 1 5 -13 5 -14 0 -19 -2 -12 -5z"/>
<path d="M47 349 c7 -7 15 -10 18 -7 3 3 -2 9 -12 12 -14 6 -15 5 -6 -5z"/>
<path d="M398 353 c6 -2 18 -2 25 0 6 3 1 5 -13 5 -14 0 -19 -2 -12 -5z"/>
</g>
</svg>
